<svg version="1" xmlns="http://www.w3.org/2000/svg" width="682.667" height="682.667" viewBox="0 0 512.000000 512.000000"><path d="M236.9.4c-.2.2-3.6.6-7.4 1-7.2.7-8 .8-18 2.6-11 1.9-11.9 2.1-21.3 4.6-8.1 2.2-22.1 6.9-34.2 11.5-8 3.1-29.2 14.6-39.5 21.3C57.9 79.9 18.2 138.7 4.6 207c-3.2 16.1-4.1 27.2-4 50 0 17.9.7 29.5 2 36.5.2 1.1 1.1 6 2 11 .8 4.9 1.7 9.2 1.9 9.5.2.4.6 1.7.8 3.1 2.4 13 12.3 39.1 21.5 56.9 20.2 39 51.9 73.7 89.2 97.6 33.4 21.4 69.7 34.2 111 39.1 13.3 1.6 54 .8 64.2-1.3 1.3-.2 5.1-.9 8.6-1.4 8.7-1.4 27.1-6.3 37.6-9.9 68-23.6 123.6-75.2 151.9-141.2 8.8-20.4 15.9-46 18.3-65.4.3-2.8.8-6.1 1-7.5.9-4.9 1.2-45.6.4-52.5-1.6-13.2-2.2-17-4.2-26.9-12.2-60.3-46.4-114.5-96.3-152.7C395.4 40.3 369.9 25.7 353 19c-20.8-8.3-44.4-14.6-61.5-16.6-3.3-.3-6.9-.8-8-1.1-2.3-.6-46.1-1.4-46.6-.9zm46.7 10.9c.5.3 3.2.8 5.9 1.1 36.4 4.1 78.3 20.9 110.7 44.4 9.9 7.2 12.8 9.6 23.2 19.2 42.8 39.5 69.2 91.5 77 152 1.3 10.1 1.5 49 .3 55-.3 1.4-.8 4.5-1.1 7-.5 4-1.9 11.9-3 17.5-6.8 33.7-24 70.7-46.5 99.5-13.4 17.2-24.9 28.4-47.5 46.7-9 7.2-35.3 22.3-49.6 28.4-7.3 3.1-23 8.8-26 9.4-.8.2-2.6.8-4 1.3-2.9 1.1-25.3 5.8-32 6.7-14.8 1.9-21.5 2.3-39.5 2-11-.2-21.1-.6-22.5-.9-1.4-.2-6.1-1-10.5-1.6-77.9-11.1-147.6-62.4-183-134.5-17.5-35.7-25-67.7-25-107.5 0-31.5 3.2-52.2 12.6-80 14.8-44.2 46-88.1 81.8-115 1.8-1.4 4.5-3.5 5.9-4.6 9.5-7.6 38.1-23.7 51.2-28.8 14.8-5.8 35.1-11.9 46.5-14 8.3-1.6 16-2.7 22.6-3.2 4.1-.4 7.6-.8 7.8-1 .6-.5 43.8.3 44.7.9z"/></svg>