<?xml version="1.0" standalone="no"?>
<!DOCTYPE svg PUBLIC "-//W3C//DTD SVG 20010904//EN"
 "http://www.w3.org/TR/2001/REC-SVG-20010904/DTD/svg10.dtd">
<svg version="1.0" xmlns="http://www.w3.org/2000/svg"
 width="500.000000pt" height="500.000000pt" viewBox="0 0 500.000000 500.000000"
 preserveAspectRatio="xMidYMid meet">
<metadata>
Created by potrace 1.11, written by Peter Selinger 2001-2013
</metadata>
<g transform="translate(0.000000,500.000000) scale(0.100000,-0.100000)"
fill="#000000" stroke="none">
<path d="M1650 4573 c-25 -42 -57 -97 -73 -122 -15 -25 -30 -54 -33 -63 -4
-10 -10 -18 -15 -18 -5 0 -9 -5 -9 -10 0 -6 -15 -34 -33 -63 -19 -29 -45 -72
-59 -97 -43 -76 -419 -703 -437 -730 -16 -22 -42 -67 -117 -198 -44 -76 -94
-157 -104 -169 -5 -7 -10 -15 -10 -17 0 -3 -16 -30 -34 -59 -19 -30 -46 -74
-59 -98 -14 -24 -43 -73 -66 -109 -23 -36 -45 -74 -51 -85 -5 -11 -20 -37 -32
-57 -53 -87 -152 -252 -331 -551 -136 -228 -187 -320 -179 -330 9 -11 93 -155
150 -257 14 -25 36 -62 49 -82 12 -21 23 -40 23 -42 0 -3 21 -40 46 -83 89
-150 112 -188 136 -233 78 -141 413 -717 423 -728 11 -12 295 -14 1685 -14
920 0 1676 4 1680 9 5 4 25 40 45 78 21 39 57 104 80 145 23 41 56 100 72 130
38 70 248 451 279 508 13 23 36 63 50 90 15 26 39 70 54 97 15 28 42 77 60
110 18 33 52 94 75 135 23 41 52 93 63 116 l21 41 -61 104 c-124 214 -226 391
-269 467 -12 20 -44 75 -72 122 -27 47 -58 99 -67 115 -9 17 -43 75 -75 130
-100 173 -204 352 -223 387 -11 18 -61 105 -112 193 -51 88 -101 174 -110 190
-9 17 -31 53 -48 81 -18 28 -32 54 -32 56 0 3 -24 46 -54 95 -29 49 -65 111
-81 138 -23 43 -124 217 -275 475 -21 36 -66 113 -100 173 l-62 107 -831 0
-832 -1 -45 -76z"/>
</g>
</svg>
